<svg width="43" height="42" viewBox="0 0 43 42" fill="none" xmlns="http://www.w3.org/2000/svg">
<path d="M21.3378 42C17.1215 42.0015 12.9993 40.7727 9.49203 38.4689C5.98472 36.1651 3.24957 32.8896 1.63207 29.0563C0.0145764 25.2229 -0.412704 21.0036 0.404203 16.9312C1.22111 12.8589 3.24556 9.11628 6.22183 6.17609C9.1981 3.2359 12.9927 1.23006 17.1263 0.411929C21.2598 -0.406202 25.5469 8.12356e-05 29.4461 1.57946C33.3453 3.15883 36.6815 5.84045 39.0335 9.28559C41.3855 12.7307 42.6476 16.7848 42.6605 20.9358C42.6657 23.6974 42.1183 26.433 41.0495 28.9863C39.9807 31.5395 38.4114 33.8605 36.4313 35.8166C34.4512 37.7727 32.0991 39.3255 29.5093 40.3865C26.9195 41.4475 24.1428 41.9957 21.3378 42ZM17.2177 30.226C17.355 30.2368 17.4361 30.2497 17.5191 30.2497C20.6321 30.2497 23.7427 30.2519 26.8511 30.2564C27.0743 30.2564 27.1388 30.1652 27.1944 29.986C27.6811 28.4261 28.1723 26.8679 28.6681 25.3111C29.6445 22.2261 30.6214 19.1409 31.5988 16.0554C31.7121 15.6978 31.8185 15.3388 31.9366 14.9528C31.7993 14.9399 31.719 14.9251 31.6359 14.9251C28.5147 14.9251 25.3933 14.9233 22.2716 14.9197C22.1881 14.9079 22.1033 14.9288 22.0351 14.9778C21.967 15.0268 21.921 15.1001 21.907 15.182C21.5477 16.3596 21.1842 17.5359 20.8166 18.7109C20.7012 19.0834 20.5797 19.4546 20.4389 19.894C20.3819 19.7642 20.3524 19.7101 20.3338 19.6533C19.5506 17.142 18.7689 14.6314 17.9888 12.1215C17.9078 11.8585 17.8007 11.7537 17.5082 11.7551C14.4614 11.7666 11.4153 11.7618 8.36915 11.7632C8.25722 11.7632 8.14598 11.7767 7.9956 11.7862C8.07182 12.0404 8.13293 12.2513 8.19748 12.4622C9.69444 17.2009 11.1909 21.9406 12.687 26.6815C12.6945 26.7346 12.7127 26.7857 12.7405 26.8319C12.7683 26.8781 12.805 26.9183 12.8487 26.9504C12.8924 26.9825 12.9421 27.0057 12.995 27.0187C13.0478 27.0317 13.1028 27.0343 13.1567 27.0263C14.701 27.0141 16.2467 27.0202 17.7904 27.0202H18.2106C18.0328 27.5982 17.8735 28.1188 17.7121 28.6386C17.5507 29.1585 17.3887 29.6784 17.2184 30.2246M31.9586 24.9812C31.6097 24.9802 31.2641 25.0468 30.9413 25.1773C30.6186 25.3078 30.3252 25.4997 30.0778 25.7419C29.8305 25.9841 29.634 26.272 29.4997 26.589C29.3654 26.906 29.2958 27.2459 29.295 27.5894C29.2915 28.1096 29.445 28.6191 29.736 29.0533C30.0271 29.4875 30.4426 29.8268 30.9298 30.0281C31.417 30.2295 31.954 30.2838 32.4726 30.1842C32.9912 30.0846 33.4681 29.8356 33.8428 29.4687C34.2174 29.1019 34.4729 28.6337 34.5769 28.1237C34.6809 27.6136 34.6286 27.0847 34.4268 26.6039C34.2249 26.1232 33.8826 25.7123 33.4431 25.4234C33.0037 25.1345 32.487 24.9806 31.9586 24.9812Z" fill="#404555"/>
</svg>
