<svg width="63" height="15" viewBox="0 0 63 15" fill="none" xmlns="http://www.w3.org/2000/svg">
<path d="M0.703613 7.75466C0.703613 6.40449 0.989623 5.20361 1.56164 4.15203C2.14696 3.08747 2.94513 2.25659 3.95614 1.6594C4.98045 1.06221 6.12448 0.763611 7.38825 0.763611C8.98458 0.763611 10.3282 1.12712 11.419 1.85414C12.5098 2.58116 13.308 3.60028 13.8135 4.91151H12.7759C12.3768 3.87291 11.7116 3.05502 10.7804 2.45782C9.86256 1.84765 8.73182 1.54256 7.38825 1.54256C6.31072 1.54256 5.33297 1.79572 4.45499 2.30203C3.57701 2.79537 2.88526 3.51589 2.37976 4.46361C1.87426 5.39835 1.6215 6.49537 1.6215 7.75466C1.6215 9.00098 1.87426 10.0915 2.37976 11.0262C2.88526 11.948 3.57701 12.662 4.45499 13.1684C5.33297 13.6747 6.31072 13.9278 7.38825 13.9278C8.73182 13.9278 9.86256 13.6292 10.7804 13.032C11.7116 12.4219 12.3768 11.5975 12.7759 10.5589H13.8135C13.308 11.8701 12.5098 12.8892 11.419 13.6162C10.3282 14.3433 8.98458 14.7068 7.38825 14.7068C6.12448 14.7068 4.98045 14.4147 3.95614 13.8305C2.94513 13.2333 2.14696 12.4089 1.56164 11.3573C0.989623 10.2927 0.703613 9.09186 0.703613 7.75466Z" fill="#888B94"/>
<path d="M17.5156 0.899927V14.5705H16.6177V0.899927H17.5156Z" fill="#888B94"/>
<path d="M28.3699 14.5705L24.7781 8.74782H24.6983H21.7052V14.5705H20.8072V0.899927H24.6584C26.2148 0.899927 27.3788 1.25695 28.1504 1.97098C28.9352 2.68502 29.3277 3.63274 29.3277 4.81414C29.3277 5.86572 29.0217 6.73554 28.4098 7.42361C27.8111 8.0987 26.9332 8.51414 25.7758 8.66993L29.4474 14.5705H28.3699ZM21.7052 8.00782H24.6983C25.9354 8.00782 26.86 7.71572 27.4719 7.13151C28.0838 6.5473 28.3898 5.77484 28.3898 4.81414C28.3898 2.72396 27.146 1.67887 24.6584 1.67887H21.7052V8.00782Z" fill="#888B94"/>
<path d="M31.4337 7.75466C31.4337 6.40449 31.7198 5.20361 32.2918 4.15203C32.8771 3.08747 33.6753 2.25659 34.6863 1.6594C35.7106 1.06221 36.8546 0.763611 38.1184 0.763611C39.7147 0.763611 41.0583 1.12712 42.1491 1.85414C43.2399 2.58116 44.0381 3.60028 44.5436 4.91151H43.506C43.1069 3.87291 42.4418 3.05502 41.5106 2.45782C40.5927 1.84765 39.462 1.54256 38.1184 1.54256C37.0409 1.54256 36.0631 1.79572 35.1851 2.30203C34.3071 2.79537 33.6154 3.51589 33.1099 4.46361C32.6044 5.39835 32.3516 6.49537 32.3516 7.75466C32.3516 9.00098 32.6044 10.0915 33.1099 11.0262C33.6154 11.948 34.3071 12.662 35.1851 13.1684C36.0631 13.6747 37.0409 13.9278 38.1184 13.9278C39.462 13.9278 40.5927 13.6292 41.5106 13.032C42.4418 12.4219 43.1069 11.5975 43.506 10.5589H44.5436C44.0381 11.8701 43.2399 12.8892 42.1491 13.6162C41.0583 14.3433 39.7147 14.7068 38.1184 14.7068C36.8546 14.7068 35.7106 14.4147 34.6863 13.8305C33.6753 13.2333 32.8771 12.4089 32.2918 11.3573C31.7198 10.2927 31.4337 9.09186 31.4337 7.75466Z" fill="#888B94"/>
<path d="M48.2457 13.8305H53.4537V14.5705H47.3478V0.899927H48.2457V13.8305Z" fill="#888B94"/>
<path d="M56.3911 1.63993V7.34572H61.9782V8.08572H56.3911V13.8305H62.5768V14.5705H55.4931V0.899927H62.5768V1.63993H56.3911Z" fill="#888B94"/>
</svg>
