<svg width="13" height="16" viewBox="0 0 13 16" fill="none" xmlns="http://www.w3.org/2000/svg">
<path d="M12.0246 2.20172L10.5949 4.14061C10.0851 3.8526 9.60142 3.54797 9.08955 3.29788C7.98119 2.70358 6.69354 2.50042 5.44725 2.72319C5.09725 2.76104 4.76467 2.89093 4.48568 3.09873C4.20669 3.30653 3.99196 3.58429 3.86484 3.90182C3.77564 4.08956 3.72647 4.29274 3.72026 4.49925C3.71404 4.70575 3.75092 4.91135 3.82867 5.10378C3.90643 5.29621 4.02347 5.47153 4.17283 5.61928C4.32219 5.76704 4.5008 5.88419 4.69801 5.96376C5.55939 6.30434 6.44171 6.59311 7.33994 6.82845C8.54669 7.08626 9.70637 7.51835 10.78 8.11017C11.2953 8.41557 11.7229 8.84135 12.0235 9.34835C12.3241 9.85534 12.4879 10.4273 12.5 11.0115C12.5572 11.6027 12.4849 12.1989 12.2879 12.7612C12.0909 13.3236 11.7735 13.8395 11.3565 14.2754C10.5617 15.0627 9.51607 15.5688 8.38778 15.7121C6.22937 16.0667 4.01071 15.6748 2.12144 14.6053C1.52975 14.2794 0.985537 13.8736 0.373901 13.4745L2.01342 11.5855C2.54525 11.9387 3.0413 12.3172 3.5862 12.6192C4.3069 13.0668 5.12094 13.3552 5.97021 13.4636C6.81948 13.572 7.68304 13.4979 8.49924 13.2464C8.76072 13.1718 9.00142 13.0411 9.20338 12.8641C9.40535 12.687 9.56336 12.4682 9.66568 12.2239C9.76799 11.9796 9.81194 11.7161 9.79427 11.4531C9.77659 11.1901 9.69773 10.9343 9.56358 10.7049C9.2393 10.23 8.73805 9.89429 8.16418 9.76771C7.15488 9.46041 6.12562 9.21697 5.10875 8.92963C4.05031 8.69063 3.06062 8.22564 2.21226 7.56875C1.85035 7.25042 1.55982 6.8637 1.35865 6.43251C1.15747 6.00131 1.04992 5.53481 1.04264 5.06183C0.878209 2.50835 2.60648 0.843504 4.99386 0.433777C6.20146 0.213442 7.444 0.247456 8.63677 0.5335C9.82953 0.819544 10.9445 1.35089 11.9055 2.09131C11.9393 2.11592 11.9682 2.14718 12.0273 2.20106" fill="#404554"/>
</svg>
