<svg width="15" height="16" viewBox="0 0 15 16" fill="none" xmlns="http://www.w3.org/2000/svg">
<path d="M0.231445 15.593V0.550152C0.332582 0.540174 0.415138 0.525541 0.497698 0.525541C2.55002 0.530197 4.60509 0.471665 6.65328 0.558133C7.86205 0.56751 9.05208 0.848012 10.1297 1.37756C11.2073 1.9071 12.143 2.67124 12.8632 3.6098C13.4785 4.40638 13.9188 5.31617 14.1571 6.28328C14.3954 7.25038 14.4266 8.25437 14.2488 9.23357C14.1106 10.2778 13.7322 11.2789 13.1415 12.1634C12.5507 13.0478 11.7626 13.7931 10.835 14.3445C9.44596 15.19 7.83357 15.6289 6.1923 15.6083C4.27965 15.6176 2.36701 15.6116 0.454362 15.6083C0.391754 15.6083 0.328459 15.5963 0.232138 15.587M2.92153 8.06625C2.92153 9.68565 2.92153 11.3053 2.92153 12.9251C2.92153 13.106 2.92153 13.2457 3.18229 13.2397C4.38492 13.2131 5.59031 13.2563 6.79019 13.1692C7.49044 13.1337 8.17448 12.9523 8.79552 12.6375C9.41656 12.3228 9.95994 11.882 10.3885 11.3454C11.2476 10.2497 11.6322 8.87383 11.4611 7.50886C11.3831 6.3273 10.8626 5.21366 9.99678 4.37628C9.131 3.53891 7.97931 3.03517 6.75717 2.95929C5.60132 2.8848 4.43721 2.92205 3.27792 2.89278C2.99103 2.88546 2.91397 2.9726 2.91603 3.2453C2.92842 4.85495 2.92223 6.46392 2.92223 8.07357" fill="#404554"/>
</svg>
