<svg width="16" height="16" viewBox="0 0 16 16" fill="none" xmlns="http://www.w3.org/2000/svg">
<path d="M0.61968 0.524904C1.58289 0.524904 2.4821 0.515592 3.3827 0.536876C3.49209 0.536876 3.62694 0.684538 3.70056 0.793621C4.7555 2.35981 5.80333 3.92865 6.84405 5.50016C7.26282 6.12806 7.68204 6.75551 8.10173 7.38251C8.15814 7.46698 8.22142 7.5468 8.31293 7.67052C8.73536 7.04063 9.13855 6.44533 9.53415 5.84737C10.668 4.14815 11.8 2.44783 12.9301 0.746396C12.973 0.670435 13.0381 0.608395 13.1173 0.568048C13.1965 0.527702 13.2862 0.510842 13.3753 0.519583C14.1052 0.530225 14.8366 0.523574 15.5672 0.523574C15.9917 0.523574 15.9931 0.523574 15.9931 0.922658C15.9931 3.38368 15.9931 5.84471 15.9931 8.30573C15.9931 10.6111 15.9869 12.9158 16 15.2232C16 15.5365 15.9188 15.6356 15.5872 15.6223C14.9432 15.5963 14.2979 15.615 13.6532 15.6136C13.5383 15.6136 13.4234 15.6037 13.2776 15.597V4.87692L13.1998 4.84766L8.26203 11.9494L3.36 4.88225L3.274 4.89555V5.24475C3.274 8.56735 3.274 11.89 3.274 15.2126C3.274 15.6243 3.274 15.6249 2.86119 15.6256C2.22754 15.6256 1.59319 15.615 0.958853 15.6309C0.691907 15.6376 0.611411 15.5558 0.614851 15.2984C0.625171 13.5956 0.620352 11.8928 0.620352 10.1901V0.524904" fill="#404554"/>
</svg>
