<svg width="24" height="16" viewBox="0 0 24 16" fill="none" xmlns="http://www.w3.org/2000/svg">
<path d="M23.6278 0.512908C23.3808 1.19867 23.1551 1.82191 22.9315 2.44647C21.3803 6.7792 19.8311 11.1122 18.284 15.4453C18.2097 15.6522 18.1189 15.7413 17.8788 15.7333C17.288 15.7152 16.6971 15.7152 16.1058 15.7333C16.0185 15.7472 15.9291 15.7269 15.8572 15.677C15.7854 15.6271 15.737 15.5517 15.7226 15.4673C14.7356 12.6533 13.7439 9.84085 12.7477 7.02996C12.5298 6.41271 12.3108 5.79613 12.0906 5.18021C12.0611 5.09773 12.0218 5.01924 11.9468 4.8616C11.6331 5.74624 11.3462 6.55439 11.06 7.36253C10.106 10.0546 9.15354 12.7475 8.20272 15.4413C8.19489 15.4882 8.17752 15.5331 8.1516 15.5734C8.12567 15.6138 8.09172 15.6487 8.05172 15.6762C8.01171 15.7038 7.96645 15.7233 7.91856 15.7338C7.87066 15.7443 7.82109 15.7455 7.77272 15.7373C7.18172 15.718 6.59073 15.7247 5.99973 15.7373C5.92323 15.7503 5.84452 15.7339 5.78029 15.6917C5.71607 15.6495 5.67139 15.5847 5.65573 15.5112C4.46319 12.1633 3.26561 8.81698 2.06297 5.4722C1.52633 3.97608 0.989232 2.48017 0.451672 0.984493C0.403511 0.851465 0.362913 0.70979 0.309937 0.544835C0.439281 0.538849 0.543856 0.530867 0.647745 0.530867C1.21741 0.530867 1.78709 0.530867 2.35675 0.530867C3.23946 0.530867 3.23671 0.530867 3.51054 1.35564C4.62281 4.69864 5.73645 8.0412 6.85148 11.3833C6.88313 11.4798 6.92029 11.5749 6.98152 11.7432C7.05032 11.5576 7.10329 11.4365 7.14526 11.3128C8.34881 7.80175 9.54961 4.2898 10.7477 0.776969C10.7546 0.730142 10.7711 0.685135 10.7964 0.64462C10.8216 0.604105 10.8551 0.568907 10.8947 0.541114C10.9342 0.513322 10.9792 0.493501 11.0269 0.482829C11.0745 0.472156 11.1239 0.47085 11.1721 0.478986C11.7301 0.49761 12.2902 0.494949 12.8488 0.478986C12.8948 0.470466 12.942 0.470896 12.9878 0.480252C13.0335 0.489607 13.0769 0.5077 13.1154 0.533469C13.1538 0.559239 13.1866 0.592167 13.2117 0.630324C13.2368 0.668481 13.2538 0.711101 13.2616 0.755685C14.4624 4.29911 15.6696 7.84055 16.8833 11.38C16.9156 11.4758 16.9617 11.5676 17.0326 11.7352C17.1069 11.527 17.1585 11.388 17.2053 11.2476C18.3657 7.76716 19.5238 4.28626 20.6797 0.804905C20.6861 0.760364 20.7015 0.71749 20.7252 0.678757C20.7488 0.640025 20.7802 0.606202 20.8174 0.57924C20.8546 0.552278 20.897 0.532711 20.9421 0.521669C20.9872 0.510626 21.0341 0.508327 21.0801 0.514903C21.9057 0.528206 22.7313 0.520225 23.6319 0.520225" fill="#404554"/>
</svg>
