<svg width="17" height="16" viewBox="0 0 17 16" fill="none" xmlns="http://www.w3.org/2000/svg">
<path d="M8.49387 0.26214C9.72246 0.216618 10.9456 0.442734 12.0701 0.923269C13.1947 1.4038 14.191 2.12609 14.9831 3.03511C16.0673 4.28532 16.7006 5.84299 16.7871 7.47227C16.9213 9.09544 16.5296 10.7188 15.6663 12.117C14.7507 13.6395 13.3022 14.7954 11.5823 15.3761C9.72567 16.0461 7.68481 16.0657 5.81479 15.4314C4.52897 15.046 3.37433 14.3327 2.47234 13.3666C1.57036 12.4005 0.95436 11.2172 0.689154 9.94128C0.33883 8.6476 0.34503 7.28778 0.707147 5.99714C1.06926 4.7065 1.77467 3.53003 2.75317 2.58481C3.97705 1.35492 5.60121 0.569363 7.35317 0.359916C7.7873 0.299388 8.22831 0.284755 8.49595 0.262806M8.63354 2.66862C8.45121 2.6786 8.26822 2.68259 8.08728 2.69922C7.43817 2.74534 6.80488 2.91505 6.22384 3.1986C5.64281 3.48214 5.12547 3.87393 4.70159 4.35143C4.14415 4.95987 3.73557 5.68185 3.50617 6.46381C3.27678 7.24577 3.23246 8.06763 3.3765 8.8684C3.46334 9.85506 3.85303 10.7942 4.4956 11.5653C5.13817 12.3364 6.00433 12.9044 6.98302 13.1965C7.90627 13.5313 8.91141 13.5942 9.87162 13.3774C10.8318 13.1605 11.7041 12.6736 12.3784 11.9779C12.9978 11.3677 13.4586 10.6241 13.7229 9.80825C13.9872 8.99237 14.0475 8.1275 13.8988 7.2847C13.7634 6.02321 13.1511 4.85443 12.1794 4.00245C11.2076 3.15048 9.9447 2.67528 8.63286 2.66796" fill="#404554"/>
</svg>
